<svg width="354" height="317" viewBox="0 0 354 317" fill="none" xmlns="http://www.w3.org/2000/svg">
<path d="M209.6 72.5661C197.299 81.6783 210.842 116.923 228.427 122.483C245.992 128.063 267.341 131.495 278.815 132.779C290.288 134.064 297.089 108.614 281.673 97.113C266.237 85.6324 225.509 60.7642 209.6 72.5661Z" fill="url(#paint0_linear_19_164)"/>
<path d="M311.164 306.294C307.32 308.301 303.18 310.128 298.745 311.713C298.252 311.894 297.74 312.075 297.227 312.235C296.714 312.416 296.222 312.577 295.709 312.737C295.315 312.878 294.901 312.998 294.487 313.118C294.014 313.259 293.541 313.399 293.067 313.56C292.673 313.68 292.279 313.781 291.885 313.901C291.392 314.042 290.899 314.162 290.406 314.303C289.322 314.604 288.198 314.885 287.094 315.166C284.019 315.908 280.944 316.41 277.868 316.691C276.823 316.791 275.779 316.852 274.734 316.892C273.452 316.952 272.171 316.952 270.89 316.952C270.259 316.932 269.628 316.932 268.997 316.892C268.662 316.892 268.347 316.872 268.011 316.852C267.755 316.832 267.479 316.811 267.203 316.811C265.567 316.711 263.931 316.551 262.314 316.35C261.821 316.29 261.329 316.229 260.855 316.149C260.382 316.089 259.909 316.009 259.436 315.948C258.431 315.788 257.425 315.607 256.44 315.407C256.164 315.346 255.888 315.306 255.631 315.246C254.784 315.085 253.936 314.905 253.088 314.704C252.812 314.644 252.536 314.584 252.26 314.523C252.241 314.523 252.221 314.523 252.201 314.503C251.886 314.443 251.59 314.363 251.294 314.283C251.216 314.262 251.156 314.242 251.078 314.222C250.683 314.122 250.289 314.022 249.895 313.921C249.52 313.821 249.146 313.721 248.771 313.62C248.219 313.48 247.667 313.319 247.115 313.159C245.775 312.777 244.414 312.376 243.094 311.934C242.68 311.794 242.246 311.673 241.832 311.533C241.418 311.392 240.984 311.252 240.57 311.111C240.196 310.991 239.841 310.87 239.466 310.73C238.993 310.569 238.54 310.409 238.067 310.248C237.653 310.108 237.239 309.947 236.825 309.807C236.411 309.666 235.997 309.506 235.583 309.345C235.287 309.245 234.991 309.124 234.696 309.004C234.163 308.803 233.651 308.602 233.118 308.402C220.837 303.665 209.186 297.945 198.541 294.011C197.26 293.529 195.978 293.087 194.716 292.666C194.519 292.606 194.322 292.546 194.125 292.485C194.007 292.445 193.889 292.405 193.77 292.385C193.494 292.305 193.199 292.224 192.923 292.164C192.745 292.124 192.587 292.084 192.41 292.044C192.371 292.024 192.311 292.024 192.272 292.004C176.166 288.331 153.87 298.286 128.183 301.056C111.841 302.842 94.1182 301.698 75.7452 292.325C-81.9041 211.779 33.775 7.6359 175.161 83.2037C193.967 93.2593 205.736 114.535 213.74 131.475C214.272 132.619 214.805 133.723 215.297 134.807C220.876 146.869 236.371 151.044 262.965 149.117C276.902 148.114 289.558 150.181 300.677 154.577C361.631 178.642 377.106 271.872 311.164 306.294Z" fill="url(#paint1_linear_19_164)"/>
<path d="M277.592 98.2972C273.827 103.154 268.899 110.982 268.899 110.982C268.899 110.982 213.425 196.224 205.401 195.883C203.469 195.803 199.98 193.254 195.781 189.44C194.263 188.055 192.666 186.53 191.01 184.864C185.037 178.903 178.374 171.517 172.933 165.254C166.546 157.929 161.854 152.188 161.854 152.188L155.151 113.19C155.151 113.19 171.711 112.327 185.254 121.018C190.655 124.49 197.023 130.23 202.72 135.87C205.933 139.062 208.95 142.233 211.434 144.943C212.124 145.685 212.774 146.327 213.405 146.889C216.579 149.739 218.866 150.402 218.866 150.402L244.217 93.1791C244.217 93.1791 243.212 90.4494 242.384 87.3785C241.97 85.8531 241.595 84.2675 241.398 82.8625C241.043 80.2733 240.886 77.6239 241.3 75.8175C241.516 74.8943 241.891 74.2118 242.443 73.8506C247.036 70.9603 259.811 66.2436 260.501 69.9367C261.013 72.7065 259.949 75.0548 258.293 76.9215C255.198 80.474 250.112 82.3607 250.112 82.3607L250.664 82.4209L260.481 83.3843C260.481 83.3843 262.216 80.6145 264.778 78.2461C267.381 75.8376 270.831 73.8305 274.202 75.5566C280.944 78.9687 282.205 92.3561 277.592 98.2972Z" fill="#F69B88"/>
<path opacity="0.6" d="M213.425 146.909C210.684 152.951 199.605 177.598 196.964 186.108C196.629 187.192 196.234 188.316 195.781 189.46C194.263 188.075 192.666 186.55 191.01 184.884C185.037 178.923 178.374 171.537 172.933 165.275C179.32 156.584 190.498 143.578 196.471 139.604C198.6 138.178 200.749 136.954 202.72 135.89C205.933 139.082 208.95 142.253 211.434 144.963C212.124 145.705 212.794 146.347 213.425 146.909Z" fill="#F69B88"/>
<path opacity="0.6" d="M276.587 98.0362C276.429 99.0598 268.899 105.523 268.899 105.523C268.899 105.523 266.395 105.864 263.379 104.158C260.363 102.452 260.363 94.2829 260.363 94.2829C260.363 94.2829 259.87 95.6477 258.687 96.3301C257.524 97.0125 255.848 96.4907 255.848 96.4907L254.508 98.6985L251.334 101.589L249.54 101.669L250.151 96.8319L254.666 87.7999L244.119 87.6393C244.119 87.6393 244.966 87.4587 243.449 87.6393C242.975 87.6995 242.621 87.559 242.364 87.3583C241.95 85.8329 241.576 84.2473 241.379 82.8423C241.024 80.2532 240.866 77.6038 241.28 75.7974L248.613 74.5128L258.293 76.9013L259.653 77.2425L264.779 78.226L272.861 79.7915C272.92 79.8116 276.764 97.0125 276.587 98.0362Z" fill="#F69B88"/>
<path d="M211.453 144.942C209.068 148.475 204.337 155.66 200 163.528C195.958 170.854 192.233 178.762 191.01 184.864C190.754 184.623 190.518 184.382 190.261 184.121C177.408 171.195 161.834 152.188 161.834 152.188L159.449 135.369L158.582 129.327L156.295 113.19C156.295 113.19 171.691 112.347 185.234 121.018C193.731 126.457 204.514 137.456 211.453 144.942Z" fill="#9AD2AD"/>
<path d="M248.537 93.0534L247.404 96.646L252.303 98.2469L253.435 94.6543L248.537 93.0534Z" fill="#F9F5B7"/>
<path d="M248.535 97.1331L251.098 97.976L249.54 101.689L247.786 101.107L248.535 97.1331Z" fill="#F9F5B7"/>
<path d="M248.002 92.8378C248.101 92.5167 248.436 92.3561 248.732 92.4565L253.601 94.0421C253.916 94.1424 254.074 94.4837 253.976 94.7847C253.877 95.1059 253.542 95.2664 253.246 95.1661L248.377 93.5805C248.081 93.5002 247.904 93.159 248.002 92.8378Z" fill="#FBD55A"/>
<path d="M245.341 87.8201L250.782 70.579C251.019 69.8163 251.847 69.3948 252.596 69.6356L263.537 73.2083C264.286 73.4492 264.7 74.2721 264.463 75.0548L259.042 92.2959C258.805 93.0586 257.918 94.4837 256.814 94.584C253.798 94.8048 247.786 92.7174 245.795 91.2322C245.144 90.7705 245.105 88.6028 245.341 87.8201Z" fill="#F9F5B7"/>
<path d="M246.879 96.4506C246.977 96.1295 247.312 95.9689 247.608 96.0693L252.477 97.6549C252.793 97.7552 252.95 98.0964 252.852 98.3975C252.753 98.7187 252.418 98.8792 252.122 98.7789L247.253 97.1932C246.938 97.0929 246.78 96.7517 246.879 96.4506Z" fill="#FBD55A"/>
<path d="M249.506 74.657L245.823 86.333L259.506 90.8074L263.189 79.1314L249.506 74.657Z" fill="#FBD55A"/>
<path d="M137.33 129.969L130.312 154.235L113.004 159.093L94.2168 124.932L94.1773 124.851C94.1773 124.851 96.9372 117.184 91.6737 103.134C90.8457 100.926 90.2741 98.9394 89.8995 97.1932C87.869 87.82 91.4371 84.7491 91.4371 84.7491L107.878 86.9971L127.06 89.6063C127.06 89.6063 125.581 98.7186 126.133 104.961C126.291 106.868 126.665 108.513 127.316 109.537C131.337 115.92 137.094 113.11 137.094 113.11L137.33 129.969Z" fill="#F69B88"/>
<path opacity="0.6" d="M213.622 146.829L215.12 150.141C215.12 150.141 213.365 161.12 218.373 165.977C223.4 170.834 226.909 167.001 226.909 165.977C226.909 164.953 228.663 152.69 228.663 151.927C228.663 151.164 229.156 149.117 228.663 148.355C228.17 147.592 213.622 146.829 213.622 146.829Z" fill="#F69B88"/>
<path opacity="0.5" d="M110.402 141.892C110.402 141.892 121.934 148.074 124.97 146.428C128.006 144.782 132.047 138.801 132.047 138.801C132.047 138.801 158.739 153.412 133.664 154.858C108.588 156.303 143.777 162.063 126.173 159.173C108.568 156.283 108.568 156.283 108.568 156.283L110.402 141.892Z" fill="#F69B88"/>
<path opacity="0.5" d="M126.113 104.961L126.034 105.021C126.034 105.021 118.346 112.006 113.497 112.688C108.647 113.371 98.1002 110.641 98.1002 117.104C98.1002 123.587 99.7759 123.928 99.7759 123.928C99.7759 123.928 96.8583 124.891 94.2167 124.931L94.1773 124.851C94.1773 124.851 96.9372 117.184 91.6736 103.134C90.8457 100.926 90.274 98.9394 89.8994 97.1932C90.3331 96.9122 90.7865 96.6312 91.2597 96.3301C97.4694 92.4163 103.029 89.3454 107.878 86.9971L127.059 89.6063C127.04 89.6063 125.561 98.7186 126.113 104.961Z" fill="#F69B88"/>
<path d="M312.564 301.176C312.13 303.063 311.657 304.769 311.164 306.294C307.32 308.301 303.18 310.128 298.745 311.713C298.252 311.894 297.739 312.075 297.227 312.235C296.714 312.416 296.221 312.576 295.709 312.737C295.315 312.878 294.901 312.998 294.487 313.118C294.014 313.259 293.54 313.399 293.067 313.56C292.673 313.68 292.279 313.781 291.884 313.901C291.392 314.042 290.899 314.162 290.406 314.303C289.322 314.604 288.198 314.885 287.094 315.166C284.019 315.908 280.943 316.41 277.868 316.691C276.823 316.791 275.779 316.852 274.734 316.892C273.452 316.952 272.171 316.972 270.89 316.952C270.259 316.932 269.628 316.932 268.997 316.892C268.662 316.892 268.346 316.872 268.011 316.852C267.755 316.832 267.479 316.811 267.203 316.811C265.567 316.711 263.931 316.551 262.314 316.35C261.821 316.29 261.328 316.229 260.855 316.149C260.382 316.089 259.909 316.009 259.436 315.948C258.431 315.788 257.425 315.607 256.44 315.406C256.164 315.346 255.888 315.306 255.631 315.246C254.784 315.085 253.936 314.905 253.088 314.704C252.812 314.644 252.536 314.584 252.26 314.523C252.241 314.523 252.221 314.523 252.201 314.503C251.886 314.443 251.59 314.363 251.294 314.282C251.215 314.262 251.156 314.242 251.077 314.222C250.683 314.122 250.289 314.022 249.895 313.921C249.52 313.821 249.146 313.72 248.771 313.62C248.219 313.48 247.667 313.319 247.115 313.159C245.774 312.777 244.414 312.376 243.093 311.934L235.642 306.214L233.414 305.772C233.414 305.772 223.656 281.707 219.161 264.426C217.604 258.384 216.48 253.146 216.322 249.955C216.322 249.794 216.303 249.653 216.303 249.513C216.303 249.413 216.303 249.332 216.303 249.252C216.303 248.831 216.303 248.389 216.322 247.927C216.441 244.114 216.993 238.454 217.742 232.473C217.742 232.392 217.762 232.312 217.781 232.252C217.821 232.011 217.84 231.79 217.86 231.549C217.998 230.345 218.156 229.141 218.313 227.937C218.412 227.254 218.491 226.552 218.589 225.869C218.688 225.066 218.806 224.284 218.905 223.501C219.417 219.747 219.93 216.155 220.403 213.104C220.502 212.482 220.581 211.88 220.679 211.298C221.349 206.802 221.842 203.811 221.842 203.811C221.842 203.811 221.882 203.028 221.941 201.764C222 200.499 222.079 198.753 222.138 196.886C222.237 194.157 222.335 191.146 222.335 188.978C222.335 186.851 224.582 181.833 227.047 176.735C227.973 174.828 228.919 172.901 229.787 171.115C231.679 167.241 233.237 163.97 233.375 162.766C233.592 162.545 225.095 162.545 225.095 162.545L225.588 153.854L216.046 143.377L211.236 140.748C211.355 139.062 211.611 137.396 212.025 135.81C212.419 134.305 212.971 132.86 213.74 131.495C215.199 128.845 217.446 126.497 220.817 124.61C225.43 122.021 229.097 120.636 231.699 119.874C234.774 118.99 236.371 118.99 236.371 118.99C236.371 118.99 239.387 105.703 250.427 105.703C259.16 105.703 273.847 106.988 281.594 113.832C283.644 115.639 285.221 117.846 286.049 120.516C290.071 133.281 289.065 138.399 289.065 138.399C289.065 138.399 289.164 138.439 289.361 138.52C289.499 138.58 289.657 138.66 289.854 138.74C290.721 139.142 292.22 139.885 293.816 141.029C296.872 143.216 300.322 146.869 300.598 152.188C300.637 152.931 300.657 153.734 300.677 154.597C300.894 164.672 299.79 180.609 302.096 184.382C304.6 188.477 312.643 191.026 309.627 202.266C308.188 207.604 299.08 211.458 299.08 211.458C299.08 211.458 299.08 211.478 299.1 211.538C299.198 211.96 299.652 213.947 300.223 216.416C300.854 219.145 301.603 222.457 302.096 224.745C303.003 228.88 303.496 235.483 303.575 236.768C303.594 236.908 303.594 237.009 303.594 237.009C303.594 237.009 303.713 237.129 303.91 237.39C305.585 239.457 313.569 250.075 314.634 266.995C315.698 282.048 314.417 293.228 312.564 301.176Z" fill="url(#paint2_linear_19_164)"/>
<path opacity="0.3" d="M302.195 184.382C299.888 180.609 300.973 164.652 300.775 154.597C300.756 153.754 300.736 152.951 300.697 152.188C300.421 146.849 296.971 143.216 293.915 141.029L287.37 142.594C288.238 140.948 288.928 139.563 289.44 138.5C289.263 138.419 289.144 138.379 289.144 138.379C289.144 138.379 290.15 133.261 286.128 120.496C285.281 117.826 283.723 115.619 281.673 113.812C283.388 118.328 286.187 127.982 281.949 134.807C276.252 143.999 266.218 148.395 262.216 147.712C258.194 147.03 252.517 143.317 256.183 146.729C259.87 150.141 263.201 153.212 258.864 155.239C254.508 157.286 253.167 157.627 253.502 159.675C253.838 161.722 253.502 168.185 257.859 168.526C261.368 168.807 270.594 164.833 277.356 157.888C276.232 162.505 275.089 167.743 274.34 172.621C272.664 183.519 272.073 213.746 283.625 217.58C289.085 219.386 295.433 217.52 300.322 216.396C299.77 213.947 299.297 211.94 299.198 211.518C299.179 211.458 299.179 211.438 299.179 211.438C299.179 211.438 308.286 207.584 309.725 202.246C312.722 191.026 304.698 188.477 302.195 184.382Z" fill="url(#paint3_linear_19_164)"/>
<path opacity="0.5" d="M199.98 163.528C195.939 170.854 192.213 178.762 190.991 184.864C190.734 184.623 190.498 184.382 190.241 184.121C177.388 171.196 161.815 152.188 161.815 152.188L159.429 135.369L158.562 129.327L166.408 115.318C166.408 115.318 182.179 132.619 187.048 145.806C191.897 158.992 190.281 165.576 196.353 164.753C197.772 164.552 198.955 164.11 199.98 163.528Z" fill="#9AD2AD"/>
<path d="M263.536 164.452C253.167 168.205 226.909 167.522 221.054 160.016C219.339 157.828 218.156 154.878 217.466 152.77C217.348 152.409 217.249 152.088 217.15 151.787C216.855 150.783 216.697 150.121 216.697 150.121C216.697 150.121 216.697 150.121 216.677 150.101C216.658 150.081 216.658 150.081 216.618 150.04C216.539 149.94 216.322 149.679 215.83 149.077C215.711 148.957 215.593 148.796 215.455 148.636C215.455 148.615 215.435 148.615 215.435 148.595C214.805 147.893 211.039 145.404 211.256 141.109C211.67 134.626 213.72 128.544 220.876 124.55C225.489 121.961 229.057 119.914 231.758 119.813C236.391 119.633 247.095 123.466 248.14 128.283C249.481 134.405 246.307 140.888 257.504 146.508C265.094 150.321 270.002 143.136 272.684 147.19C275.463 151.445 273.925 160.718 263.536 164.452Z" fill="url(#paint4_linear_19_164)"/>
<path opacity="0.6" d="M237.692 153.734C237.692 153.734 239.703 157.567 238.441 160.638C237.179 163.709 237.179 163.709 237.179 163.709C237.179 163.709 241.694 164.733 244.71 163.448C247.726 162.164 254.251 159.113 254.251 159.113C254.251 159.113 251.748 163.97 251.235 164.733C250.742 165.495 241.694 169.59 240.196 169.59C238.697 169.59 238.441 170.613 235.169 170.092C231.916 169.59 228.387 169.068 228.387 168.305C228.387 167.543 228.88 160.638 229.885 159.875C230.93 159.093 237.692 153.734 237.692 153.734Z" fill="url(#paint5_linear_19_164)"/>
<path opacity="0.6" d="M240.452 158.751C240.452 158.751 233.434 160.618 230.418 157.306C228.131 154.777 225.312 148.274 225.312 148.274C225.312 148.274 224.05 150.924 219.871 151.947C219.299 152.088 218.057 151.967 217.151 151.827C216.855 150.823 216.697 150.161 216.697 150.161C216.697 150.161 216.697 150.161 216.677 150.141C216.658 150.101 216.52 149.94 215.83 149.117L221.448 148.013L226.554 143.598L228.644 149.479L231.403 153.131L238.185 157.467L240.452 158.751Z" fill="url(#paint6_linear_19_164)"/>
<path d="M137.409 41.837C129.603 10.8472 107.445 2.23671 86.233 7.77634C65.7309 13.1353 52.1876 29.8546 58.358 58.9577C53.607 60.9648 50.0783 66.4844 52.4439 73.5695C54.6321 80.0926 62.557 83.9663 67.8796 83.5649C78.8009 101.87 95.8335 112.186 111.604 108.072C132.816 102.512 145.216 72.8068 137.409 41.837Z" fill="#FABA94"/>
<path d="M198.62 294.051C198.068 293.85 197.535 293.649 196.983 293.449C196.254 293.188 195.525 292.947 194.795 292.686C194.598 292.626 194.401 292.566 194.204 292.505C194.085 292.465 193.967 292.445 193.849 292.405C193.573 292.325 193.277 292.244 193.001 292.164C192.824 292.124 192.666 292.084 192.489 292.044C192.449 292.024 192.39 292.024 192.351 292.004C189.748 291.401 186.969 291.12 184.032 291.1C168.478 290.98 148.449 297.985 128.262 301.056C111.919 302.822 94.1968 301.698 75.8238 292.325C76.8883 287.608 78.2683 281.627 79.8848 274.823C82.7236 262.9 77.7755 248.429 72.5316 236.647C70.3434 231.75 68.1158 227.334 66.3416 223.742C64.4097 219.788 61.2949 210.956 57.9633 200.78C50.965 179.324 43.0007 151.947 43.0007 151.947C43.0007 151.947 53.1729 142.715 62.9311 135.248C63.562 134.766 64.1928 134.285 64.8236 133.823C69.0226 130.692 74.8381 128.022 80.2199 125.975C88.0068 123.005 94.9262 121.319 94.9262 121.319C94.9262 121.319 95.8725 124.129 97.7256 127.701C99.6181 131.394 102.477 135.89 106.183 138.841C106.222 138.881 106.262 138.901 106.301 138.941C113.654 144.742 126.369 152.569 126.369 152.569C126.369 152.569 131.041 140.306 133.387 132.458C134.077 130.15 134.038 127.46 133.624 124.791C133.171 121.72 132.244 118.709 131.396 116.401C130.489 113.912 129.662 112.247 129.662 112.247C129.662 112.247 131.396 112.287 133.979 112.347C138.414 112.447 145.334 112.608 150.104 112.668C151.406 112.688 152.569 112.688 153.456 112.688C159.468 112.688 164.495 113.371 168.517 117.465C171.415 120.395 179.32 134.706 183.519 150.301C183.637 150.743 183.756 151.185 183.874 151.626C185.313 157.306 186.259 163.107 186.259 168.566C186.259 170.272 186.18 172.46 186.042 175.029C185.53 184.322 184.229 198.291 183.105 209.471C182.1 219.547 181.232 227.334 181.232 227.334C181.094 227.997 180.996 228.719 180.936 229.462C179.616 243.793 189.512 271.491 196.569 289.073C197.299 290.819 197.969 292.505 198.62 294.051Z" fill="url(#paint7_linear_19_164)"/>
<path opacity="0.5" d="M89.4461 143.598C81.6395 145.384 73.0839 146.809 64.0551 134.485C64.9225 133.843 70.0874 130.15 71.5856 129.207C72.453 128.665 74.7989 113.672 76.8294 99.5215C81.679 104.64 87.1002 108.513 92.758 110.822C93.2705 112.206 94.0394 114.454 94.7885 117.365C96.129 122.483 103.541 126.517 105.946 130.572C109.317 136.191 99.8154 141.209 89.4461 143.598Z" fill="url(#paint8_linear_19_164)"/>
<path opacity="0.5" d="M150.125 112.668C148.686 115.257 146.931 117.686 145.945 119.171C142.771 123.948 130.135 125.654 129.386 125.654C126.882 125.654 128.203 121.399 128.203 121.399L131.397 116.421L133.999 112.367C138.454 112.447 145.354 112.588 150.125 112.668Z" fill="url(#paint9_linear_19_164)"/>
<path d="M242.265 157.848C242.265 157.848 237.396 159.012 231.265 153.412C225.134 147.813 227.559 138.781 227.559 138.781" stroke="#3B2314" stroke-width="7.637" stroke-miterlimit="10" stroke-linecap="round" stroke-linejoin="round"/>
<path opacity="0.3" d="M196.984 293.469L196.57 289.053C189.512 271.471 179.616 243.773 180.937 229.442C180.976 228.94 181.055 228.438 181.114 227.977C181.154 227.756 181.173 227.535 181.233 227.314C181.233 227.314 181.745 222.738 182.435 216.075C182.652 214.047 182.869 211.799 183.105 209.451C184.229 198.292 185.53 184.322 186.043 175.009L183.874 151.626L183.657 149.358C183.657 149.358 183.618 149.699 183.519 150.301C182.573 156.624 185.55 182.114 174.353 201.242C172.499 204.413 165.994 207.504 162.603 213.104C139.006 217.299 110.027 222.297 109.633 221.694C108.963 220.671 79.5303 198.874 78.1898 198.874C77.4604 198.874 67.2291 199.777 57.944 200.78C61.2756 210.956 64.3706 219.808 66.3222 223.742C68.0964 227.334 70.3241 231.77 72.5123 236.647C82.0931 243.11 110.067 258.023 133.743 254.39C138.218 253.708 142.338 252.664 146.123 251.4C150.952 252.845 156.098 255.233 160.612 260.552C169.759 271.33 170.883 285.24 184.012 291.141C187.423 292.666 191.641 293.67 197.023 293.91L196.984 293.469Z" fill="url(#paint10_linear_19_164)"/>
<path d="M298.745 311.713C297.739 312.075 296.734 312.416 295.709 312.757C295.334 312.878 294.96 312.998 294.585 313.118C293.698 313.399 292.811 313.66 291.904 313.921C291.411 314.062 290.919 314.202 290.426 314.343C289.341 314.644 288.218 314.925 287.114 315.206C284.039 315.948 280.963 316.45 277.888 316.731C274.615 317.032 271.343 317.072 268.09 316.892C267.814 316.872 267.519 316.852 267.243 316.852C266.73 316.811 266.217 316.771 265.705 316.731C265.37 316.691 265.035 316.671 264.719 316.631C264.345 316.591 263.95 316.551 263.576 316.51C263.162 316.47 262.768 316.41 262.373 316.37C261.88 316.31 261.388 316.249 260.915 316.169C260.441 316.109 259.968 316.029 259.495 315.968C257.879 315.708 256.242 315.406 254.626 315.065C254.133 314.965 253.64 314.844 253.147 314.724C252.871 314.664 252.595 314.604 252.319 314.543C251.925 314.443 251.531 314.363 251.137 314.262C250.742 314.162 250.348 314.062 249.954 313.961C249.52 313.841 249.086 313.741 248.653 313.62C248.16 313.48 247.667 313.339 247.174 313.199C245.834 312.817 244.473 312.416 243.153 311.974L233 306.114L232.685 305.15C232.685 305.15 223.715 281.747 219.22 264.466L224.405 254.912C224.405 253.387 218.392 238.052 224.405 235.503C230.418 232.954 228.919 228.358 231.936 223.742C234.952 219.145 246.997 215.051 256.026 217.098C265.054 219.145 277.099 224.765 280.116 229.362C283.132 233.958 288.651 244.696 287.134 250.818C285.635 256.939 289.144 264.105 292.653 273.819C296.162 283.534 298.666 298.346 298.666 307.539C298.666 308.863 298.705 310.268 298.745 311.713Z" fill="url(#paint11_linear_19_164)"/>
<path opacity="0.2" d="M265.212 219.647C263.872 226.13 253.502 224.083 251.492 227.816C249.481 231.569 257.504 230.887 259.18 231.228C260.856 231.569 258.845 237.009 251.492 239.056C244.868 240.902 227.697 234.46 218.964 223.501C219.477 219.748 219.989 216.155 220.462 213.104C220.561 212.482 220.64 211.88 220.738 211.298C221.409 206.802 221.902 203.811 221.902 203.811C221.902 203.811 221.941 203.028 222 201.764C222.059 200.499 222.138 198.753 222.197 196.887C222.296 194.157 222.394 191.146 222.394 188.978C222.394 186.851 224.642 181.833 227.106 176.735C228.032 174.828 228.979 172.902 229.846 171.115L242.128 169.229L257.524 188.978C257.524 188.978 241.122 209.752 249.501 213.505C257.859 217.259 266.553 213.164 265.212 219.647Z" fill="url(#paint12_linear_19_164)"/>
<path opacity="0.6" d="M251.255 194.358C239.506 197.99 227.796 196.806 222.197 196.887C222.296 194.157 222.394 191.146 222.394 188.979C222.394 186.851 224.642 181.833 227.106 176.735L267.302 171.878C267.321 171.878 267.814 189.239 251.255 194.358Z" fill="url(#paint13_linear_19_164)"/>
<path opacity="0.5" d="M270.712 316.972C267.913 316.932 265.133 316.711 262.373 316.37C261.388 316.249 260.422 316.109 259.436 315.948C257.918 300.574 260.875 257.1 260.875 257.1C260.875 257.1 270.318 288.612 270.081 293.71C269.865 297.784 270.456 309.425 270.712 316.972Z" fill="url(#paint14_linear_19_164)"/>
<path opacity="0.5" d="M249.993 313.66C249.973 313.761 249.973 313.841 249.954 313.941C249.027 313.7 248.101 313.46 247.174 313.179C245.834 312.797 244.473 312.396 243.153 311.954C241.95 311.573 240.747 311.172 239.545 310.75L238.461 278.897L241.477 258.124C241.457 258.124 252.004 294.753 249.993 313.66Z" fill="url(#paint15_linear_19_164)"/>
<path d="M138.75 45.9316C138.75 45.9316 135.398 44.5668 129.386 40.1511C123.373 35.7154 108.982 20.4011 108.982 20.4011C108.982 20.4011 102.635 46.2929 88.9139 59.2388C82.3296 65.4608 76.9872 70.0169 73.1825 73.0878C72.7882 71.2011 72.1968 69.194 71.5068 67.1468C69.0229 59.7405 64.41 56.9707 59.3436 58.737C55.2826 60.142 51.9313 64.0759 52.0299 69.3948L51.7736 69.1338C51.7736 69.1338 47.3183 58.7169 47.752 49.0426C48.7574 26.9042 61.5318 10.6867 82.5464 2.37726C100.604 -4.76806 110.993 6.47177 110.993 6.47177C110.993 6.47177 127.73 4.26394 135.083 16.688C140.248 25.3788 138.75 45.9316 138.75 45.9316Z" fill="#022D32"/>
<path d="M89.5645 139.242C79.1951 141.631 67.4853 143.337 55.1052 113.009C42.725 82.7019 48.0871 46.2527 48.0871 46.2527L57.9242 59.2989C53.5675 61.567 50.5316 66.8657 52.779 73.5494C54.9869 80.0725 62.892 83.9463 68.2147 83.5448C74.7596 94.5238 83.5124 102.632 92.8763 106.486C93.3889 107.871 94.1577 110.119 94.9068 113.029C96.2474 118.147 101.59 126.999 105.611 129.387C109.653 131.756 99.9535 136.874 89.5645 139.242Z" fill="#022D32"/>
<path opacity="0.5" d="M47.9689 50.6082L49.0531 52.0332C48.6391 52.0734 48.2054 52.1336 47.7717 52.1737C47.89 51.1501 47.9689 50.6082 47.9689 50.6082Z" fill="url(#paint16_linear_19_164)"/>
<path d="M150.795 99.5616C149.789 113.872 143.343 118.549 138.671 120.255C133.979 121.961 126.961 125.373 128.302 120.596C129.642 115.819 123.945 102.211 123.945 102.211L124.024 101.689C136.956 89.8673 143.067 66.6249 136.995 42.5998C136.029 38.7863 134.866 35.314 133.486 32.1628L137.113 23.1509C137.113 23.171 151.8 85.271 150.795 99.5616Z" fill="#022D32"/>
<path d="M228.151 138.961C228.091 139.282 226.574 146.649 220.502 149.077C219.181 149.599 217.88 149.9 216.638 150.081C216.559 149.98 216.342 149.719 215.849 149.117C215.731 148.997 215.613 148.836 215.475 148.676C215.475 148.656 215.455 148.656 215.455 148.636C216.855 148.535 218.392 148.254 219.95 147.632C225.272 145.504 226.672 138.72 226.672 138.64C226.751 138.219 227.145 137.958 227.559 138.038C227.973 138.138 228.229 138.56 228.151 138.961Z" fill="#3B2314"/>
<path opacity="0.3" d="M272.073 253.868C269.569 263.061 263.044 271.25 256.006 271.752C248.988 272.254 234.4 264.908 225.391 257.441C222.71 255.213 219.516 251.721 216.382 247.927C216.5 244.114 217.052 238.454 217.801 232.473C217.801 232.392 217.821 232.312 217.841 232.252C217.88 232.011 217.9 231.79 217.919 231.549C218.057 230.345 218.215 229.141 218.373 227.937C222.848 232.954 241.024 252.845 248.475 252.845C257.011 252.845 262.531 245.7 267.538 244.154C272.585 242.629 274.576 244.676 272.073 253.868Z" fill="url(#paint17_linear_19_164)"/>
<path d="M223.735 131.073C225.194 128.544 232.764 130.732 235.11 133.121C237.455 135.509 236.43 140.707 229.57 139.804C222.729 138.921 222.118 133.883 223.735 131.073Z" fill="#2C312C"/>
<path d="M262.689 126.457C261.447 128.364 259.239 129.106 257.741 128.103C257.071 127.661 256.676 126.919 256.538 126.096C256.361 125.072 256.617 123.888 257.287 122.824C258.529 120.917 260.737 120.175 262.216 121.178C262.354 121.279 262.472 121.379 262.59 121.479C263.753 122.603 263.832 124.711 262.689 126.457Z" fill="white"/>
<path d="M261.861 124.751C260.619 126.658 258.411 127.4 256.913 126.397C256.775 126.296 256.657 126.196 256.538 126.096C256.361 125.072 256.617 123.888 257.287 122.824C258.529 120.917 260.737 120.175 262.216 121.178C262.354 121.279 262.472 121.379 262.59 121.479C262.787 122.503 262.551 123.687 261.861 124.751Z" fill="#211812"/>
<path d="M257.82 186.128C243.764 193.796 223.755 190.905 223.755 190.905C223.755 190.905 162.367 241.344 135.556 247.887C127.296 249.914 114.187 249.453 101.747 245.78C97.4498 244.515 93.2311 242.849 89.3278 240.782C85.4639 238.735 81.9155 236.266 78.8993 233.376C76.7505 231.329 74.7003 229.301 72.7487 227.314C33.9524 187.915 32.0599 162.585 41.6013 153.714C48.0476 147.712 59.9349 149.037 76.1 159.313C82.566 163.428 92.9354 172.861 103.088 182.696C107.583 187.072 112.038 191.508 116.079 195.622C117.084 196.626 118.05 197.629 118.977 198.593C127.138 206.942 133.013 213.224 133.013 213.224L219.319 167.101C219.319 167.101 232.409 148.876 235.464 150.783C242.364 155.078 232.29 165.295 232.29 165.295C232.29 165.295 240.984 166.378 245.144 164.351C248.988 162.485 248.258 154.617 257.701 155.42C264.838 156.022 274.714 176.916 257.82 186.128Z" fill="#FABA94"/>
<path d="M245.38 117.004C244.138 118.91 241.93 119.653 240.432 118.649C239.703 118.168 239.289 117.345 239.19 116.421C239.092 115.458 239.348 114.354 239.979 113.371C241.221 111.464 243.429 110.721 244.907 111.725C245.124 111.865 245.321 112.046 245.479 112.247C246.445 113.431 246.445 115.378 245.38 117.004Z" fill="white"/>
<path d="M244.71 115.297C243.468 117.204 241.26 117.947 239.762 116.943C239.545 116.803 239.348 116.622 239.19 116.421C239.092 115.458 239.348 114.354 239.979 113.371C241.221 111.464 243.429 110.721 244.907 111.725C245.124 111.865 245.321 112.046 245.479 112.247C245.597 113.23 245.341 114.314 244.71 115.297Z" fill="#211812"/>
<path d="M309.706 202.266C308.267 207.604 299.159 211.458 299.159 211.458C299.159 211.458 299.159 211.478 299.179 211.538C296.714 212.1 292.358 215.492 287.863 213.746C277.316 209.652 277.08 195.863 275.818 187.694C274.556 179.525 279.327 158.31 279.327 149.117C279.327 143.437 284.571 138.219 289.913 138.72C292.673 138.981 300.243 144.059 300.657 152.188C301.15 161.903 299.652 180.288 302.155 184.382C304.698 188.477 312.722 191.026 309.706 202.266Z" fill="url(#paint18_linear_19_164)"/>
<path d="M283.289 296.961C281.988 299.892 279.899 308.201 277.908 316.711C272.684 317.173 267.499 317.012 262.373 316.37L260.875 257.12C260.875 257.12 264.562 244.174 271.244 237.711C277.947 231.248 289.637 222.718 290.307 231.589C290.978 240.421 286.286 290.157 283.289 296.961Z" fill="url(#paint19_linear_19_164)"/>
<path opacity="0.6" d="M97.2725 236.667C97.6076 240.28 100.506 242.91 101.747 245.78C97.4499 244.515 93.2312 242.849 89.3279 240.782C85.4641 238.735 81.9156 236.266 78.8995 233.376C76.7507 231.329 74.7005 229.301 72.7488 227.314C75.6073 213.144 65.5534 212.442 80.8511 198.532C88.1846 191.849 96.4051 186.51 103.088 182.716C107.583 187.092 112.038 191.528 116.079 195.642C117.085 196.646 118.051 197.649 118.977 198.613C116.198 202.085 95.932 222.377 97.2725 236.667Z" fill="#F69B88"/>
<path d="M116.119 195.622C107.622 202.687 92.206 218.363 89.3475 240.762C85.4837 238.715 81.9352 236.246 78.9191 233.356C34.2087 190.484 31.6065 163.006 41.621 153.693C48.0673 147.692 59.9546 149.017 76.1395 159.293C85.464 165.254 102.97 182.275 116.119 195.622Z" fill="#9AD2AD"/>
<path d="M247.174 313.179C245.834 312.797 244.474 312.396 243.153 311.954C242.739 311.814 242.305 311.693 241.891 311.553C241.477 311.412 241.043 311.272 240.629 311.131C240.255 311.011 239.9 310.89 239.525 310.75C239.052 310.589 238.599 310.429 238.126 310.268C237.712 310.128 237.298 309.967 236.884 309.827C236.47 309.686 236.056 309.526 235.642 309.365C235.346 309.265 235.05 309.144 234.755 309.024C234.222 308.823 233.71 308.622 233.178 308.422C232.882 307.579 216.894 259.428 216.362 249.975C216.362 249.814 216.342 249.674 216.342 249.533C216.342 249.433 216.342 249.352 216.342 249.272C216.342 245.519 216.953 239.216 217.781 232.473C219.832 235.182 228.624 246.603 232.744 249.613C237.436 253.025 241.438 258.123 241.438 258.123C241.438 258.123 247.115 289.796 246.8 308.201C246.8 309.225 246.957 310.77 247.174 313.179Z" fill="url(#paint20_linear_19_164)"/>
<path d="M250.171 82.3607C250.171 82.3607 245.104 84.7291 241.418 82.8424C240.866 78.9286 240.787 74.8943 242.482 73.8506C247.076 70.9603 259.85 66.2436 260.54 69.9367C262.038 77.9451 250.171 82.3607 250.171 82.3607Z" fill="#FABA94"/>
<path d="M267.065 70.4385C267.065 70.4385 278.854 71.9639 280.116 76.5602C281.377 81.1565 284.886 96.4908 279.11 100.565C273.334 104.66 264.305 109.497 263.3 99.5416C262.294 89.5863 261.289 77.5637 262.294 73.9911C263.3 70.4385 267.065 70.4385 267.065 70.4385Z" fill="#FABA94"/>
<path d="M127.395 60.463C127.572 63.1726 126.291 65.4607 124.516 65.5812C122.742 65.7016 121.165 63.6142 120.968 60.9046C120.791 58.195 122.072 55.9069 123.846 55.7865C125.62 55.666 127.217 57.7534 127.395 60.463Z" fill="#022D32"/>
<path d="M103.936 61.4666C104.113 64.1762 102.832 66.4643 101.058 66.5847C99.2833 66.7051 97.7062 64.6177 97.5091 61.9081C97.3317 59.1985 98.613 56.9104 100.387 56.79C102.181 56.6696 103.758 58.757 103.936 61.4666Z" fill="#022D32"/>
<path d="M120.534 90.1282C119.904 92.3762 118.326 94.3632 116.158 95.6478C114.443 96.6714 112.393 97.2334 110.165 97.1531C102.023 96.832 100.703 91.493 100.486 89.6465C100.446 89.2451 100.446 89.0042 100.446 89.0042C100.446 89.0042 100.525 85.1305 104.33 85.7326C108.135 86.3348 112.097 87.3183 115.054 86.3147C118.031 85.3111 121.638 86.0939 120.534 90.1282Z" fill="#022D32" stroke="#012C32" stroke-width="8.7867" stroke-miterlimit="10"/>
<path d="M116.158 95.6477C114.443 96.6714 112.393 97.2334 110.165 97.1531C102.023 96.8319 100.703 91.493 100.486 89.6465C101.767 89.1246 104.192 88.5426 107.898 89.1648C112.629 89.9676 114.739 92.336 116.158 95.6477Z" fill="#EF5C80"/>
<path d="M92.8368 57.5529C92.8368 57.5529 98.2186 53.7594 102.063 53.4383C105.907 53.1171 106.341 55.9873 106.341 55.9873" stroke="#012C32" stroke-width="2.7941" stroke-miterlimit="10" stroke-linecap="round" stroke-linejoin="round"/>
<path d="M116.178 55.7665C116.178 55.7665 123.551 51.391 126.074 51.7924C128.597 52.1938 129.544 55.064 129.544 55.064" stroke="#012C32" stroke-width="2.7941" stroke-miterlimit="10" stroke-linecap="round" stroke-linejoin="round"/>
<path d="M113.753 65.8422C113.753 65.8422 116.375 74.8942 117.005 76.8211C118.267 80.6547 109.987 80.3937 109.987 80.3937" stroke="#DC4926" stroke-width="2.7941" stroke-miterlimit="10" stroke-linecap="round" stroke-linejoin="round"/>
<path opacity="0.3" d="M281.87 219.647C279.465 218.925 276.35 220.671 273.098 225.528C269.845 230.385 255.789 234.721 263.813 235.483C271.836 236.246 279.367 230.365 281.634 227.816C283.861 225.267 283.782 220.229 281.87 219.647Z" fill="url(#paint21_linear_19_164)"/>
<path opacity="0.3" d="M312.564 301.176C309.666 298.687 306.788 293.73 304.363 290.819C298.686 284.015 297.68 267.316 300.677 261.536C303.141 256.779 303.594 241.966 303.673 236.788C303.693 236.928 303.693 237.029 303.693 237.029C303.693 237.029 303.811 237.149 304.008 237.41C305.684 239.477 313.668 250.095 314.733 267.015C315.699 282.048 314.417 293.228 312.564 301.176Z" fill="url(#paint22_linear_19_164)"/>
<path d="M192.035 64.8186C200.212 64.8186 206.84 58.07 206.84 49.7452C206.84 41.4203 200.212 34.6718 192.035 34.6718C183.859 34.6718 177.23 41.4203 177.23 49.7452C177.23 58.07 183.859 64.8186 192.035 64.8186Z" fill="url(#paint23_linear_19_164)"/>
<path d="M166.684 61.5068C166.684 64.7583 164.101 67.3877 160.908 67.3877C157.714 67.3877 155.132 64.7583 155.132 61.5068C155.132 58.2553 157.714 55.626 160.908 55.626C164.101 55.626 166.684 58.2553 166.684 61.5068Z" fill="url(#paint24_linear_19_164)"/>
<defs>
<linearGradient id="paint0_linear_19_164" x1="81.7204" y1="352.883" x2="259.693" y2="92.1958" gradientUnits="userSpaceOnUse">
<stop stop-color="#6EA8DA"/>
<stop offset="1" stop-color="#A7DBF6"/>
</linearGradient>
<linearGradient id="paint1_linear_19_164" x1="79.9512" y1="351.675" x2="257.923" y2="90.9884" gradientUnits="userSpaceOnUse">
<stop stop-color="#6EA8DA"/>
<stop offset="1" stop-color="#A7DBF6"/>
</linearGradient>
<linearGradient id="paint2_linear_19_164" x1="235.046" y1="91.939" x2="272.439" y2="260.271" gradientUnits="userSpaceOnUse">
<stop offset="0.00537634" stop-color="#9A8479"/>
<stop offset="1" stop-color="#1D120A"/>
</linearGradient>
<linearGradient id="paint3_linear_19_164" x1="287.613" y1="128.998" x2="274.787" y2="236.924" gradientUnits="userSpaceOnUse">
<stop offset="0.00537634" stop-color="#9A8479"/>
<stop offset="1" stop-color="#1D120A"/>
</linearGradient>
<linearGradient id="paint4_linear_19_164" x1="228.95" y1="126.187" x2="263.47" y2="177.283" gradientUnits="userSpaceOnUse">
<stop stop-color="#FCC16E"/>
<stop offset="1" stop-color="#8F2E1D"/>
</linearGradient>
<linearGradient id="paint5_linear_19_164" x1="240.113" y1="167.833" x2="242.52" y2="157.135" gradientUnits="userSpaceOnUse">
<stop stop-color="#FCC16E"/>
<stop offset="1" stop-color="#8F2E1D"/>
</linearGradient>
<linearGradient id="paint6_linear_19_164" x1="228.014" y1="154.638" x2="230.524" y2="142.648" gradientUnits="userSpaceOnUse">
<stop stop-color="#FCC16E"/>
<stop offset="1" stop-color="#8F2E1D"/>
</linearGradient>
<linearGradient id="paint7_linear_19_164" x1="122.266" y1="265.159" x2="117.889" y2="143.49" gradientUnits="userSpaceOnUse">
<stop stop-color="#007B79"/>
<stop offset="1" stop-color="#56BD8B"/>
</linearGradient>
<linearGradient id="paint8_linear_19_164" x1="64.0634" y1="122.143" x2="106.65" y2="122.143" gradientUnits="userSpaceOnUse">
<stop stop-color="#007B79"/>
<stop offset="1" stop-color="#56BD8B"/>
</linearGradient>
<linearGradient id="paint9_linear_19_164" x1="127.859" y1="118.982" x2="150.13" y2="118.982" gradientUnits="userSpaceOnUse">
<stop stop-color="#007B79"/>
<stop offset="1" stop-color="#56BD8B"/>
</linearGradient>
<linearGradient id="paint10_linear_19_164" x1="134.191" y1="203.273" x2="190.251" y2="294.43" gradientUnits="userSpaceOnUse">
<stop stop-color="#007B79"/>
<stop offset="1" stop-color="#56BD8B"/>
</linearGradient>
<linearGradient id="paint11_linear_19_164" x1="254.924" y1="219.074" x2="261.166" y2="317.843" gradientUnits="userSpaceOnUse">
<stop offset="0.00537634" stop-color="#9A8479"/>
<stop offset="1" stop-color="#1D120A"/>
</linearGradient>
<linearGradient id="paint12_linear_19_164" x1="246.66" y1="179.443" x2="238.08" y2="251.649" gradientUnits="userSpaceOnUse">
<stop offset="0.00537634" stop-color="#9A8479"/>
<stop offset="1" stop-color="#1D120A"/>
</linearGradient>
<linearGradient id="paint13_linear_19_164" x1="242.13" y1="194.003" x2="247.063" y2="172.07" gradientUnits="userSpaceOnUse">
<stop offset="0.00537634" stop-color="#9A8479"/>
<stop offset="1" stop-color="#1D120A"/>
</linearGradient>
<linearGradient id="paint14_linear_19_164" x1="261.754" y1="323.067" x2="270.148" y2="250.849" gradientUnits="userSpaceOnUse">
<stop offset="0.00537634" stop-color="#9A8479"/>
<stop offset="1" stop-color="#1D120A"/>
</linearGradient>
<linearGradient id="paint15_linear_19_164" x1="241.65" y1="319.254" x2="249.438" y2="252.249" gradientUnits="userSpaceOnUse">
<stop offset="0.00537634" stop-color="#9A8479"/>
<stop offset="1" stop-color="#1D120A"/>
</linearGradient>
<linearGradient id="paint16_linear_19_164" x1="47.7636" y1="51.3917" x2="49.0432" y2="51.3917" gradientUnits="userSpaceOnUse">
<stop stop-color="#007B79"/>
<stop offset="1" stop-color="#56BD8B"/>
</linearGradient>
<linearGradient id="paint17_linear_19_164" x1="247.315" y1="272.25" x2="243.675" y2="238.031" gradientUnits="userSpaceOnUse">
<stop offset="0.00537634" stop-color="#9A8479"/>
<stop offset="1" stop-color="#1D120A"/>
</linearGradient>
<linearGradient id="paint18_linear_19_164" x1="299.497" y1="120.729" x2="293.256" y2="185.087" gradientUnits="userSpaceOnUse">
<stop offset="0.00537634" stop-color="#9A8479"/>
<stop offset="1" stop-color="#1D120A"/>
</linearGradient>
<linearGradient id="paint19_linear_19_164" x1="267.103" y1="327.401" x2="280.102" y2="215.557" gradientUnits="userSpaceOnUse">
<stop offset="0.00537634" stop-color="#9A8479"/>
<stop offset="1" stop-color="#1D120A"/>
</linearGradient>
<linearGradient id="paint20_linear_19_164" x1="239.672" y1="331.013" x2="226.854" y2="241.374" gradientUnits="userSpaceOnUse">
<stop offset="0.00537634" stop-color="#9A8479"/>
<stop offset="1" stop-color="#1D120A"/>
</linearGradient>
<linearGradient id="paint21_linear_19_164" x1="261.353" y1="227.517" x2="283.306" y2="227.517" gradientUnits="userSpaceOnUse">
<stop offset="0.00537634" stop-color="#9A8479"/>
<stop offset="1" stop-color="#1D120A"/>
</linearGradient>
<linearGradient id="paint22_linear_19_164" x1="310.04" y1="300.845" x2="305.068" y2="254.101" gradientUnits="userSpaceOnUse">
<stop offset="0.00537634" stop-color="#9A8479"/>
<stop offset="1" stop-color="#1D120A"/>
</linearGradient>
<linearGradient id="paint23_linear_19_164" x1="20.0995" y1="310.814" x2="198.071" y2="50.1278" gradientUnits="userSpaceOnUse">
<stop stop-color="#6EA8DA"/>
<stop offset="1" stop-color="#A7DBF6"/>
</linearGradient>
<linearGradient id="paint24_linear_19_164" x1="3.97531" y1="299.806" x2="181.948" y2="39.1188" gradientUnits="userSpaceOnUse">
<stop stop-color="#6EA8DA"/>
<stop offset="1" stop-color="#A7DBF6"/>
</linearGradient>
</defs>
</svg>
